# xmcd
#
# Track frame offsets: 
#        150
#        16900
#        34822
#        60550
#        76675
#        93922
#        109975
#        136147
#        156772
#        173797
#        189397
#        208672
#        228022
#        247375
#        265150
#        283525
#        300800
#        315100
#        329220
#
# Disc length: 4636 seconds
#
# Revision: 21
# Processed by: cddbd v1.5.2PL0 Copyright (c) Steve Scherf et al.
# Submitted via: ExactAudioCopy v1.1
#
DISCID=f3121a13
DTITLE=(VARIOUS ARTISTS) - Kuschelrock 6  [2CD]
DYEAR=1992
DGENRE=Rock
TTITLE0=A-HA - Hunting High And Low
TTITLE1=TEN SHARP - You  [Acoustic Version]
TTITLE2=GEORGE MICHAEL ft. ELTON JOHN - Don't Let The Sun Go Down On M
TTITLE2=e
TTITLE3=BEVERLY CRAVEN - Promise Me
TTITLE4=CLOUSEAU - Close Encounters
TTITLE5=ROD STEWART - Tonight's The Night (Gonna Be Alright)
TTITLE6=ERIC CLAPTON - Lead Me On
TTITLE7=EURYTHMICS - Miracle Of Love
TTITLE8=CHICAGO - You're The Inspiration
TTITLE9=PHIL COLLINS - Groovy Kind Of Love
TTITLE10=WHITE LION - When The Children Cry
TTITLE11=POISON - Every Rose Has Its Thorn
TTITLE12=BAD ENGLISH - When I See You Smile
TTITLE13=MICHAEL BOLTON - Missing You Now
TTITLE14=BELINDA CARLISLE - Half The World
TTITLE15=WILSON PHILLIPS - You Won't See Me Cry
TTITLE16=CHARADE - Wish I Could Be There
TTITLE17=ART GARFUNKEL - All I Know
TTITLE18=STEVIE B. - Prayer
EXTD=YEAR: 1992
EXTT0=
EXTT1=
EXTT2=
EXTT3=
EXTT4=
EXTT5=
EXTT6=
EXTT7=
EXTT8=
EXTT9=
EXTT10=
EXTT11=
EXTT12=
EXTT13=
EXTT14=
EXTT15=
EXTT16=
EXTT17=
EXTT18=
PLAYORDER=
